<svg width="29" height="42" viewBox="0 0 29 42" fill="none" xmlns="http://www.w3.org/2000/svg">
<rect width="29" height="42" rx="14.5" fill="#F9EFE7"/>
<path d="M9.44 13.248C9.952 13.056 10.504 12.96 11.096 12.96C12.52 12.96 13.232 13.608 13.232 14.904C13.232 15.608 13.152 16.768 12.992 18.384C12.832 19.984 12.752 21.648 12.752 23.376C12.752 25.104 12.808 26.536 12.92 27.672C13.352 27.72 13.784 27.744 14.216 27.744C16.328 27.744 18.184 27.392 19.784 26.688C19.976 27.12 20.072 27.608 20.072 28.152C20.072 28.696 19.88 29.168 19.496 29.568C19.128 29.952 18.672 30.144 18.128 30.144C16.992 30.144 14.504 30.048 10.664 29.856C10.36 29.84 10.096 29.752 9.872 29.592C9.648 29.416 9.536 29.2 9.536 28.944C9.536 28.096 9.6 26.664 9.728 24.648C9.872 22.632 9.944 20.776 9.944 19.08C9.944 17.368 9.776 15.424 9.44 13.248Z" fill="#A94B00"/>
</svg>
