<svg width="32" height="32" viewBox="0 0 32 32" fill="none" xmlns="http://www.w3.org/2000/svg">
<path d="M16.0002 2.95972C18.7426 2.95977 21.1537 3.91597 23.2531 5.84741C25.3237 7.7522 26.3741 10.3099 26.3742 13.5759C26.3742 14.9151 26.0791 16.2524 25.4807 17.5896C24.871 18.952 24.1054 20.256 23.1848 21.5027C22.258 22.7576 21.2513 23.9289 20.1642 25.0164C19.065 26.1162 18.0395 27.09 17.0881 27.9373L17.0832 27.9421L17.0773 27.947C16.9384 28.0785 16.7783 28.1737 16.592 28.2341C16.3814 28.3024 16.181 28.3347 15.9894 28.3347C15.7981 28.3347 15.6025 28.3023 15.4006 28.2351C15.2224 28.1758 15.0695 28.0827 14.9367 27.9529L14.9279 27.9441L14.9182 27.9363L14.1877 27.2771C13.4438 26.5947 12.6593 25.841 11.8351 25.0164C10.7482 23.9289 9.74131 22.7575 8.81464 21.5027C7.89412 20.2562 7.13053 18.9517 6.52362 17.5896C5.92773 16.2523 5.63397 14.9153 5.63397 13.5759C5.63407 10.3097 6.68319 7.75214 8.75116 5.84741C10.8479 3.91611 13.2577 2.95972 16.0002 2.95972ZM15.9992 4.23901C13.4616 4.23911 11.2986 5.11356 9.54218 6.86011C7.77757 8.61493 6.90555 10.8681 6.90546 13.5759C6.90546 15.4229 7.67789 17.4438 9.14081 19.6228C10.6042 21.8023 12.7822 24.2306 15.6594 26.907L15.9953 27.2205L16.3361 26.9109C19.281 24.2392 21.4794 21.8094 22.9123 19.6218C24.3413 17.44 25.0949 15.4196 25.0949 13.5759C25.0948 10.8679 24.222 8.61497 22.4572 6.86011C20.7003 5.11351 18.537 4.23901 15.9992 4.23901ZM15.9973 11.4363C16.5292 11.4363 16.9681 11.6178 17.342 11.99C17.7152 12.3616 17.8967 12.7993 17.8967 13.3308C17.8966 13.8629 17.7154 14.2997 17.3439 14.6707C16.9726 15.0415 16.5355 15.2224 16.0031 15.2224C15.4702 15.2224 15.0329 15.0423 14.6623 14.6736C14.2923 14.305 14.1105 13.8691 14.1105 13.3367C14.1105 12.8036 14.2907 12.3637 14.6603 11.99L14.6613 11.991C15.0302 11.6186 15.4658 11.4363 15.9973 11.4363Z" fill="#A94B00" stroke="#A94B00"/>
</svg>
