<svg width="32" height="32" viewBox="0 0 32 32" fill="none" xmlns="http://www.w3.org/2000/svg">
<g clip-path="url(#clip0_7838_46)">
<path d="M16 12.5C14.4812 12.5 13.25 13.7312 13.25 15.25C13.25 16.7688 14.4812 18 16 18C17.5188 18 18.75 16.7688 18.75 15.25C18.75 13.7312 17.5188 12.5 16 12.5Z" stroke="#A94B00" stroke-width="3" stroke-linecap="round" stroke-linejoin="round"/>
<path d="M16 12.5V1.5" stroke="#A94B00" stroke-width="3" stroke-linecap="round" stroke-linejoin="round"/>
<path d="M23 23L26.8962 16.0712C26.9776 15.9068 27.0121 15.7231 26.996 15.5403C26.9799 15.3576 26.9138 15.1827 26.805 15.035L16 1.5L5.19624 15.035C5.08743 15.1827 5.02136 15.3576 5.00526 15.5403C4.98917 15.7231 5.02367 15.9068 5.10499 16.0712L8.99999 23H23Z" stroke="#A94B00" stroke-width="3" stroke-linecap="round" stroke-linejoin="round"/>
<path d="M9 23V28C9 28.2652 9.10536 28.5196 9.29289 28.7071C9.48043 28.8946 9.73478 29 10 29H22C22.2652 29 22.5196 28.8946 22.7071 28.7071C22.8946 28.5196 23 28.2652 23 28V23" stroke="#A94B00" stroke-width="3" stroke-linecap="round" stroke-linejoin="round"/>
</g>
<defs>
<clipPath id="clip0_7838_46">
<rect width="32" height="32" fill="white" transform="matrix(-1 0 0 -1 32 32)"/>
</clipPath>
</defs>
</svg>
