<svg width="24" height="24" viewBox="0 0 24 24" fill="none" xmlns="http://www.w3.org/2000/svg">
<path d="M20.875 22C18.275 22 15.8293 21.5083 13.538 20.525C11.246 19.5417 9.24602 18.196 7.53802 16.488C5.82935 14.7793 4.47935 12.7793 3.48802 10.488C2.49602 8.196 2.00002 5.74167 2.00002 3.125C1.98335 2.825 2.08335 2.56233 2.30002 2.337C2.51668 2.11233 2.78335 2 3.10002 2H7.00002C7.30002 2 7.55835 2.11233 7.77502 2.337C7.99168 2.56233 8.10002 2.83333 8.10002 3.15C8.10002 3.88333 8.15002 4.575 8.25002 5.225C8.35002 5.875 8.50835 6.49167 8.72502 7.075C8.80835 7.25833 8.82502 7.44567 8.77502 7.637C8.72502 7.829 8.62502 8.00833 8.47502 8.175L5.97502 10.675C6.69168 12.1417 7.70835 13.5333 9.02502 14.85C10.3417 16.1667 11.7583 17.2167 13.275 18L15.775 15.5C15.925 15.35 16.1 15.25 16.3 15.2C16.5 15.15 16.7 15.1667 16.9 15.25C17.5167 15.45 18.154 15.604 18.812 15.712C19.4707 15.8207 20.15 15.875 20.85 15.875C21.1667 15.875 21.4377 15.9917 21.663 16.225C21.8877 16.4583 22 16.7417 22 17.075V20.9C22 21.2 21.8917 21.4583 21.675 21.675C21.4583 21.8917 21.1917 22 20.875 22ZM20 12C20 9.76667 19.225 7.875 17.675 6.325C16.125 4.775 14.2333 4 12 4V2C13.3833 2 14.6833 2.26233 15.9 2.787C17.1167 3.31233 18.175 4.025 19.075 4.925C19.975 5.825 20.6873 6.88333 21.212 8.1C21.7373 9.31667 22 10.6167 22 12H20ZM16 12C16 10.9 15.6083 9.95833 14.825 9.175C14.0417 8.39167 13.1 8 12 8V6C13.6667 6 15.0833 6.58333 16.25 7.75C17.4167 8.91667 18 10.3333 18 12H16Z" fill="#A94B00"/>
</svg>
